<svg xmlns="http://www.w3.org/2000/svg" width="50" height="50" viewBox="-3 -3 22 22"><path d="M5.85 7.14a.497.497 0 0 0-.7 0 .49.49 0 0 0 0 .697l2.95 2.937c.014.016.01.04.023.053a.487.487 0 0 0 .367.14c.13 0 .263-.042.362-.142.012-.012.008-.03.018-.043l6.98-6.944a.49.49 0 0 0 0-.698.498.498 0 0 0-.703 0l-6.66 6.625L5.85 7.14zm9.1.418c.01.148.043.29.043.44A6.997 6.997 0 0 1 1 8a7 7 0 0 1 6.996-7c1.745 0 3.32.663 4.545 1.72l.735-.715A7.944 7.944 0 0 0 7.997 0 7.996 7.996 0 0 0 .003 8c0 4.418 3.58 8 7.994 8a7.997 7.997 0 0 0 7.995-8c0-.457-.047-.9-.12-1.336l-.923.894z"/></svg>