<svg xmlns="http://www.w3.org/2000/svg" width="50" height="50" viewBox="-3 -3 23 22"><path d="M13 15h-1.5v-4.504a.431.431 0 0 0-.017-.073.488.488 0 0 0-.44-.415l-2.794-2.01 2.792-2.007c.23-.02.406-.19.44-.414.007-.024.015-.048.017-.073V1H13a.5.5 0 0 0 0-1H2a.5.5 0 0 0 0 1h1.5v4.503c0 .025.008.05.014.074a.49.49 0 0 0 .443.414L6.747 8l-2.79 2.008a.49.49 0 0 0-.442.415c-.006.024-.013.048-.015.073V15H2a.5.5 0 0 0 0 1h11a.5.5 0 0 0 0-1zM4.5 5.3V1h6v4.3l-3 2.16-3-2.16zm6 9.7h-6v-4.302l3-2.158 3 2.158v4.3z"/></svg>