<svg xmlns="http://www.w3.org/2000/svg" width="50" height="50" viewBox="0 0 60 60" id="icon"><g><path d="M30.25 18.186c7.62.075 12.39-.4 13.036 8.046h9.292c0-13.083-11.41-14.846-22.57-14.846S7.438 13.15 7.438 26.232h9.22c.71-8.606 6.035-8.12 13.59-8.046zm-18.206 12.25c2.264 0 4.147.137 4.566-2.09a5.71 5.71 0 0 0 .087-1.042H7.39c0 3.312 2.084 3.133 4.654 3.133zm31.302-3.13h-.086c0 .4.033.742.098 1.04.44 2.054 2.32 1.927 4.577 1.927 2.582 0 4.675.17 4.675-2.968h-9.264z"/><path d="M38.806 25.05v-1.317c0-.59-.678-.625-1.515-.625h-1.365c-.837 0-1.515.036-1.515.625v2.013h-9.676v-2.013c0-.59-.677-.625-1.514-.625h-1.37c-.836 0-1.514.036-1.514.625v2.464c-2.203 2.29-9.416 12.04-9.678 13.22l.004 7.876c0 .73.592 1.32 1.32 1.32h35.18c.727 0 1.32-.592 1.32-1.32V39.38c-.26-1.147-7.47-10.89-9.676-13.182v-1.15zM24.258 40.48a1.282 1.282 0 1 1 0-2.565 1.282 1.282 0 0 1 0 2.564zm0-4.4a1.28 1.28 0 1 1-.002-2.56 1.28 1.28 0 0 1 .002 2.56zm0-4.397a1.282 1.282 0 1 1 0-2.564 1.282 1.282 0 0 1 0 2.562zm5.277 8.796a1.283 1.283 0 1 1 1.282-1.283 1.28 1.28 0 0 1-1.282 1.28zm0-4.4a1.282 1.282 0 1 1 1.282-1.28 1.28 1.28 0 0 1-1.282 1.28zm0-4.398a1.283 1.283 0 1 1 1.282-1.282 1.28 1.28 0 0 1-1.282 1.283zm5.277 8.796a1.282 1.282 0 1 1 0-2.566 1.282 1.282 0 0 1 0 2.565zm0-4.4a1.282 1.282 0 1 1 0-2.565 1.282 1.282 0 0 1 0 2.566zm0-4.397a1.28 1.28 0 1 1 0-2.562 1.28 1.28 0 0 1 0 2.563z"/></g></svg>